<svg xml:space="preserve" style="max-height: 500px" viewBox="167.2 211.20000000000002 567.6 800.8" y="0px" x="0px" version="1.1" xmlns:xlink="http://www.w3.org/1999/xlink" xmlns="http://www.w3.org/2000/svg" width="567.6" height="800.8">
<g id="background">
	
</g>
<g id="Objects">
	<g>
		<polygon points="714.909,385.257 714.909,990.327 194.58,990.327 194.58,235 564.652,235" style="fill:#E2E6E8;"/>
		<polygon points="714.909,385.257 564.652,385.257 564.652,235" style="fill:#B6C2CC;"/>
	</g>
	<g>
		<polygon points="1360.164,385.257 1360.164,990.327 839.836,990.327 839.836,235 1209.907,235" style="fill:#7FBBF7;"/>
		<polygon points="1360.164,385.257 1209.907,385.257 1209.907,235" style="fill:#5086D6;"/>
	</g>
	<g>
		<polygon points="2005.42,385.257 2005.42,990.327 1485.091,990.327 1485.091,235 1855.162,235" style="fill:#304D60;"/>
		<polygon points="2005.42,385.257 1855.162,385.257 1855.162,235" style="fill:#1E2B33;"/>
	</g>
	<g>
		<polygon points="714.909,1359.93 714.909,1965 194.58,1965 194.58,1209.673 564.652,1209.673" style="fill:#F9D150;"/>
		<polygon points="714.909,1359.93 564.652,1359.93 564.652,1209.673" style="fill:#E2AF4B;"/>
	</g>
	<g>
		<polygon points="1360.164,1359.93 1360.164,1965 839.836,1965 839.836,1209.673 1209.907,1209.673" style="fill:#F9A058;"/>
		<polygon points="1360.164,1359.93 1209.907,1359.93 1209.907,1209.673" style="fill:#DD7F50;"/>
	</g>
	<g>
		<polygon points="2005.42,1359.93 2005.42,1965 1485.091,1965 1485.091,1209.673 1855.162,1209.673" style="fill:#E24242;"/>
		<polygon points="2005.42,1359.93 1855.162,1359.93 1855.162,1209.673" style="fill:#AA3D48;"/>
	</g>
</g>
</svg>