<svg xml:space="preserve" style="max-height: 500px" viewBox="1446.1333333333332 504.304 642.4 457.392" y="0px" x="0px" version="1.1" xmlns:xlink="http://www.w3.org/1999/xlink" xmlns="http://www.w3.org/2000/svg" width="642.4" height="457.392">
<g id="background">
	
</g>
<g id="Objects">
	<path d="M705.718,547.545H448.609c-6.535,0-12.965,1.676-18.653,4.792l-37.86-30.641c-6.879-5.57-15.544-8.637-24.398-8.637   H161.179c-21.384,0-38.781,17.397-38.781,38.82l0.567,99.377c0,0.013-0.001,0.027-0.001,0.04V914.16   c0,21.384,17.397,38.78,38.781,38.78h543.972c21.384,0,38.78-17.396,38.78-38.78V586.326   C744.498,564.942,727.102,547.545,705.718,547.545z M161.179,526.82h206.519c5.712,0,11.302,1.979,15.74,5.572l35.084,28.394   l-57.031,46.158c-4.44,3.593-10.03,5.572-15.741,5.572H161.746c-9.608,0-18.405,3.52-25.187,9.328l-0.4-70.004   C136.159,538.044,147.383,526.82,161.179,526.82z M730.738,914.16c0,13.796-11.225,25.021-25.021,25.021H161.746   c-13.796,0-25.021-11.225-25.021-25.021V651.296c0-0.005,0-0.01,0-0.015c0-0.008,0.001-0.016,0.001-0.024l0-0.015   c0.03-13.771,11.241-24.966,25.019-24.966H345.75c8.852,0,17.517-3.067,24.398-8.636l62.722-50.763   c4.439-3.593,10.029-5.571,15.74-5.571h257.108c13.796,0,25.021,11.224,25.021,25.02V914.16z"/>
	<path d="M800.416,551.84c0-15.061,12.253-27.314,27.314-27.314h206.519c6.235,0,12.337,2.16,17.183,6.083l37.286,30.177   l-59.235,47.94c-4.846,3.922-10.948,6.082-17.183,6.082H828.296c-10.936,0-20.756,4.843-27.449,12.488L800.416,551.84z    M1399.582,914.16c0,15.061-12.253,27.313-27.314,27.313H828.296c-15.061,0-27.313-12.252-27.313-27.313V651.297   c0-0.007,0-0.013,0-0.02c0-0.002,0.001-0.004,0.001-0.007l0-0.015c0.022-15.042,12.265-27.273,27.312-27.273H1012.3   c8.329,0,16.481-2.886,22.954-8.125l62.722-50.763c4.846-3.922,10.948-6.082,17.183-6.082h257.109   c15.061,0,27.314,12.253,27.314,27.313V914.16z"/>
	<line y2="650.952" x2="1462.953" y1="651.296" x1="1462.953" style="fill:#F8D265;"/>
	<g>
		<path d="M1462.953,650.952l-0.573-99.11c0-17.625,14.288-31.902,31.902-31.902h206.523    c7.304,0,14.391,2.511,20.068,7.098l41.706,33.759c-0.321,0.241-0.63,0.482-0.94,0.734l5.195,89.421H1462.953z" style="fill:#ED9935;"/>
		<path d="M2070.722,586.324v327.834c0,17.625-14.288,31.902-31.902,31.902h-543.977    c-17.613,0-31.901-14.277-31.901-31.902V651.296c0-0.115,0-0.229,0.011-0.344c0.172-17.453,14.391-31.558,31.89-31.558h184.013    c7.305,0,14.391-2.511,20.068-7.098l62.714-50.765c0.31-0.252,0.619-0.493,0.94-0.734c5.516-4.128,12.224-6.376,19.139-6.376    h257.104C2056.434,554.422,2070.722,568.71,2070.722,586.324z" style="fill:#F9C33D;"/>
	</g>
</g>
</svg>